# xmcd
#
# Track frame offsets:
# 150
# 21134
# 34747
# 47890
# 64747
# 88668
# 102532
# 134421
# 153250
# 173132
# 189249
# 206367
# 220154
# 242323
#
# Disc length: 3603 seconds
#
# Revision: 0
# Processed by: cddbd v1.5.1PL0 Copyright (c) Steve Scherf et al.
# Submitted via: Audion 3.0.2 (http://www.panic.com/audion/)
#
DISCID=b80e110e
DTITLE=bluesbreakers - a good day for the blues
DYEAR=1900
DGENRE=
TTITLE0=t-bone shuffle
TTITLE1=300 pounds of joy
TTITLE2=caldonia
TTITLE3=get you
TTITLE4=riding with the king
TTITLE5=in the valley
TTITLE6=the thrill is gone
TTITLE7=all the time in the world
TTITLE8=when the sun goes down
TTITLE9=you upset me
TTITLE10=you better move on
TTITLE11=walking blues
TTITLE12=big headed woman
TTITLE13=love in vain
EXTD=
EXTT0=
EXTT1=
EXTT2=
EXTT3=
EXTT4=
EXTT5=
EXTT6=
EXTT7=
EXTT8=
EXTT9=
EXTT10=
EXTT11=
EXTT12=
EXTT13=
PLAYORDER=
